<svg width="12" height="15" viewBox="0 0 12 15" fill="none" xmlns="http://www.w3.org/2000/svg">
<path d="M9.78738 13.71C9.05238 14.4225 8.24988 14.31 7.47738 13.9725C6.65988 13.6275 5.90988 13.6125 5.04738 13.9725C3.96738 14.4375 3.39738 14.3025 2.75238 13.71C-0.907621 9.9375 -0.367621 4.1925 3.78738 3.9825C4.79988 4.035 5.50488 4.5375 6.09738 4.5825C6.98238 4.4025 7.82988 3.885 8.77488 3.9525C9.90738 4.0425 10.7624 4.4925 11.3249 5.3025C8.98488 6.705 9.53988 9.7875 11.6849 10.65C11.2574 11.775 10.7024 12.8925 9.77988 13.7175L9.78738 13.71ZM6.02238 3.9375C5.90988 2.265 7.26738 0.885 8.82738 0.75C9.04488 2.685 7.07238 4.125 6.02238 3.9375Z" fill="#DFE1EC"/>
</svg>
