<svg width="13" height="13" viewBox="0 0 13 13" fill="none" xmlns="http://www.w3.org/2000/svg">
<path d="M12.3201 5.57749L12.2526 5.31499H6.67258V7.68499H10.0101C9.82385 8.40817 9.40046 9.04801 8.80764 9.50215C8.21481 9.95628 7.48681 10.1985 6.74008 10.19C5.76556 10.1827 4.82909 9.81075 4.11508 9.14749C3.76389 8.80134 3.48442 8.38932 3.29266 7.93503C3.10091 7.48073 3.00063 6.99308 2.99758 6.49999C3.00891 5.50959 3.40102 4.56155 4.09258 3.85249C4.7969 3.18525 5.73242 2.81696 6.70258 2.82499C7.53348 2.83138 8.33351 3.14072 8.95258 3.69499L10.6026 1.99999C9.51509 1.02975 8.10746 0.495545 6.65008 0.499986C5.84835 0.495223 5.05355 0.64842 4.31103 0.95083C3.56852 1.25324 2.89284 1.69894 2.32258 2.26249C1.23785 3.38919 0.626279 4.88884 0.613723 6.45279C0.601166 8.01674 1.18858 9.52601 2.25508 10.67C2.84596 11.2587 3.54824 11.7237 4.32088 12.0379C5.09353 12.3521 5.92104 12.5092 6.75508 12.5C7.51142 12.5056 8.26102 12.3576 8.95847 12.065C9.65592 11.7723 10.2867 11.3411 10.8126 10.7975C11.8445 9.66279 12.4028 8.17597 12.3726 6.64249C12.3804 6.28669 12.3628 5.93079 12.3201 5.57749Z" fill="#EBE0E2"/>
</svg>
